#!OML:ASF H:\LiuWeirdWalks\Patient Classification 1\Patient 1\Session 1\male.ASF
:FULLY-SPECIFIED
:DEGREES
989
root 1.98464 17.9979 20.3601 4.36644 -1.26352 11.0074
lowerback 8.92783 0.0894235 -0.189875
upperback -0.424081 0.744899 11.3911
thorax -5.68158 0.587136 12.4692
lowerneck -23.0109 2.84967 11.6799
upperneck 27.3347 4.88668 -16.5108
head 13.9032 1.15259 -7.89332
rclavicle 7.95139e-016 0
rhumerus -44.9664 -20.1972 -38.5094
rradius 25.1603
rwrist -4.31014
rhand -13.7561 -4.58902
rfingers 7.12502
rthumb 12.3643 -34.2034
lclavicle 7.95139e-016 0
lhumerus -42.2379 -10.0964 93.3813
lradius 46.1395
lwrist 4.31833
lhand -9.72173 -5.52003
lfingers 7.12502
lthumb 16.2516 23.8189
rfemur -29.9193 -6.65029 4.73268
rtibia 31.5648
rfoot -1.25034 -16.5336
rtoes -3.32641
lfemur 10.8525 -0.773726 -33.6162
ltibia 14.8191
lfoot 2.09961 15.4087
ltoes 21.6654
990
root 1.95364 18.0208 20.5044 4.27801 -1.54496 10.9115
lowerback 9.00379 0.113142 -0.130199
upperback -0.350421 0.780132 11.403
thorax -5.65263 0.599255 12.4406
lowerneck -22.9692 2.94964 11.8986
upperneck 27.3139 4.96997 -16.5726
head 13.9102 1.20711 -7.94431
rclavicle -1.43125e-014 1.39944e-013
rhumerus -44.1515 -19.9413 -39.0657
rradius 25.4044
rwrist -4.75833
rhand -13.8371 -4.60285
rfingers 7.12502
rthumb 12.2862 -34.2219
lclavicle -1.43125e-014 1.39944e-013
lhumerus -42.5259 -9.93851 93.857
lradius 45.4581
lwrist 4.19623
lhand -9.42947 -5.43757
lfingers 7.12502
lthumb 16.533 23.8781
rfemur -29.4263 -6.70694 4.97769
rtibia 31.69
rfoot -1.5979 -16.0473
rtoes -2.80066
lfemur 9.63343 -0.703356 -33.405
ltibia 17.8761
lfoot 2.67242 15.1766
ltoes 22.1747
991
root 1.92231 18.0448 20.6474 4.16981 -1.77845 10.7913
lowerback 9.08588 0.189325 0.0687382
upperback -0.308717 0.902974 11.3778
thorax -5.67709 0.652944 12.2702
lowerneck -22.8653 2.92939 11.9799
upperneck 27.309 4.89884 -16.5165
head 13.8706 1.19537 -7.94366
rclavicle 7.95139e-016 -6.36111e-014
rhumerus -43.5698 -19.7469 -39.504
rradius 25.7106
rwrist -5.23937
rhand -13.9308 -4.58675
rfingers 7.12502
rthumb 12.1958 -34.2112
lclavicle 7.95139e-016 -6.36111e-014
lhumerus -42.8713 -10.0972 94.4407
lradius 44.8157
lwrist 4.07745
lhand -9.04266 -5.2956
lfingers 7.12502
lthumb 16.9054 23.9886
rfemur -28.8716 -6.73422 5.22827
rtibia 31.7657
rfoot -1.96574 -15.5973
rtoes -2.43632
lfemur 8.45081 -0.545349 -33.1221
ltibia 20.8193
lfoot 3.46269 14.7275
ltoes 22.1851
992
root 1.89022 18.069 20.7891 4.05934 -1.95486 10.632
lowerback 9.17496 0.380208 0.529016
upperback -0.367146 1.21622 11.2835
thorax -5.84406 0.799218 11.8333
lowerneck -22.6122 2.68278 11.8122
upperneck 27.3368 4.54747 -16.2721
head 13.7426 1.06126 -7.85993
rclavicle 1.35174e-014 3.18055e-014
rhumerus -43.4977 -19.6534 -39.6632
rradius 26.1275
rwrist -5.78898
rhand -14.0091 -4.60031
rfingers 7.12502
rthumb 12.1203 -34.2292
lclavicle 1.35174e-014 3.18055e-014
lhumerus -43.3857 -10.8222 95.2479
lradius 44.2221
lwrist 3.96842
lhand -8.54508 -5.11248
lfingers 7.12502
lthumb 17.3843 24.1301
rfemur -28.2699 -6.73268 5.50848
rtibia 31.7813
rfoot -2.30553 -15.2568
rtoes -2.15245
lfemur 7.25496 -0.305664 -32.7486
ltibia 23.6977
lfoot 4.43107 14.0859
ltoes 21.5291
993
root 1.85649 18.0932 20.929 3.95967 -2.07393 10.4378
lowerback 9.28913 0.651308 1.17721
upperback -0.520475 1.66806 11.1376
thorax -6.14023 1.01099 11.2052
lowerneck -22.229 2.27632 11.477
upperneck 27.3889 3.99633 -15.8936
head 13.5525 0.841358 -7.71798
rclavicle 8.74653e-015 2.8625e-014
rhumerus -43.8104 -19.6187 -39.6156
rradius 26.63
rwrist -6.3742
rhand -14.0881 -4.63737
rfingers 7.12502
rthumb 12.0442 -34.2708
lclavicle 8.74653e-015 2.8625e-014
lhumerus -44.0859 -11.9607 96.2284
lradius 43.7079
lwrist 3.82052
lhand -7.8858 -4.89375
lfingers 7.12502
lthumb 18.0187 24.2916
rfemur -27.6413 -6.67771 5.81838
rtibia 31.745
rfoot -2.59522 -15.0869
rtoes -1.91751
lfemur 6.01994 -0.00832551 -32.2925
ltibia 26.5189
lfoot 5.5552 13.2582
ltoes 20.1082
994
root 1.82133 18.1169 21.068 3.86649 -2.13927 10.1844
lowerback 9.41619 0.95729 1.95649
upperback -0.718773 2.18793 10.9703
thorax -6.48519 1.24856 10.4663
lowerneck -21.7902 1.79007 11.0443
upperneck 27.4567 3.33974 -15.4192
head 13.3402 0.577328 -7.53281
rclavicle -3.57812e-015 -3.49861e-014
rhumerus -44.314 -19.6129 -39.4777
rradius 27.2079
rwrist -6.98249
rhand -14.1546 -4.72012
rfingers 7.12502
rthumb 11.9801 -34.3573
lclavicle -3.57812e-015 -3.49861e-014
lhumerus -44.9023 -13.3452 97.312
lradius 43.2771
lwrist 3.61987
lhand -7.05127 -4.6714
lfingers 7.12502
lthumb 18.8215 24.438
rfemur -26.9809 -6.56772 6.18837
rtibia 31.6628
rfoot -2.85407 -15.0796
rtoes -1.76642
lfemur 4.75437 0.336798 -31.7325
ltibia 29.2809
lfoot 6.77929 12.2496
ltoes 17.8532
995
root 1.78472 18.1392 21.2058 3.77621 -2.15554 9.92997
lowerback 9.51861 1.26314 2.72208
upperback -0.956789 2.71154 10.813
thorax -6.84393 1.48384 9.75082
lowerneck -21.1906 1.2613 10.55
upperneck 27.5035 2.64535 -14.9174
head 13.087 0.296882 -7.32348
rclavicle -1.66979e-014 1.27222e-014
rhumerus -44.8877 -19.5044 -39.2979
rradius 27.8597
rwrist -7.63083
rhand -14.1977 -4.84387
rfingers 7.12502
rthumb 11.9385 -34.4834
lclavicle -1.66979e-014 1.27222e-014
lhumerus -45.8742 -14.7911 98.5002
lradius 42.964
lwrist 3.37423
lhand -6.04598 -4.45989
lfingers 7.12502
lthumb 19.7882 24.5528
rfemur -26.2941 -6.41775 6.55533
rtibia 31.5449
rfoot -3.10359 -15.2006
rtoes -1.72157
lfemur 3.46837 0.692642 -31.1463
ltibia 31.9695
lfoot 8.06739 11.1053
ltoes 15.1067
